<svg width="19" height="24" xmlns="http://www.w3.org/2000/svg" fill="none">

 <g>
  <title>Layer 1</title>
  <path id="svg_1" fill="#4aa3ef" d="m15.5533,8.02636c-0.1991,-2.17485 -1.9141,-2.89631 -4.0768,-3.09407l-0.0115,-3.01788l-1.67484,0.00797l0.01139,2.93839c-0.44033,0.00199 -0.8903,0.01363 -1.33747,0.02547l-0.01104,-2.9579l-1.67385,0.0077l0.01099,3.01705c-0.36249,0.00981 -0.71864,0.01893 -1.06581,0.02071l-0.00025,-0.00944l-2.30992,0.0097l0.00795,1.96199c0,0 1.23667,-0.03148 1.21623,-0.00654c0.67828,-0.00294 0.90079,0.4281 0.96658,0.80053l0.01325,3.43806c0.04676,0 0.10783,0.0018 0.17711,0.012c-0.05587,0.0004 -0.11541,0.0003 -0.17696,0.0012l0.01798,4.8164c-0.02877,0.2343 -0.15283,0.6083 -0.62683,0.6114c0.02159,0.0206 -1.2174,0.0053 -1.2174,0.0053l-0.32446,2.1954l2.17958,-0.0101c0.40562,-0.0013 0.80472,0.0044 1.19662,0.0052l0.01242,3.0523l1.67301,-0.0075l-0.01169,-3.02c0.45945,0.0083 0.9039,0.0102 1.33801,0.0079l0.01076,3.006l1.67494,-0.008l-0.0113,-3.0469c2.8151,-0.1901 4.7828,-0.9771 5.0163,-3.8786c0.1886,-2.3362 -0.8168,-3.3735 -2.4167,-3.7871c0.969,-0.5469 1.5725,-1.50521 1.4243,-3.09656l-0.0006,-0.00008zm-2.3182,6.53724c0.0096,2.281 -3.55219,2.038 -4.68726,2.0444l-0.01503,-4.0441c1.13536,-0.0049 4.69329,-0.3794 4.70229,1.9997zm-0.8009,-5.70211c0.0075,2.07521 -2.96305,1.84671 -3.90851,1.85111l-0.0139,-3.6677c0.94546,-0.0044 3.91391,-0.34773 3.92241,1.81659z"/>
 </g>
</svg>